<svg width="132" height="132" viewBox="0 0 132 132" fill="none" xmlns="http://www.w3.org/2000/svg">
<g clip-path="url(#clip0_268_6052)">
<path fill-rule="evenodd" clip-rule="evenodd" d="M65.6162 0C29.3321 0 0 29.5484 0 66.1037C0 95.3244 18.7941 120.059 44.8665 128.813C48.1263 129.472 49.3203 127.391 49.3203 125.641C49.3203 124.109 49.2128 118.856 49.2128 113.382C30.96 117.323 27.159 105.502 27.159 105.502C24.2256 97.8414 19.8793 95.8724 19.8793 95.8724C13.9052 91.8229 20.3145 91.8229 20.3145 91.8229C26.9414 92.2608 30.4187 98.6083 30.4187 98.6083C36.2841 108.676 45.7355 105.832 49.5379 104.08C50.0805 99.8117 51.8198 96.8569 53.6666 95.2156C39.1086 93.6831 23.7918 87.9924 23.7918 62.6009C23.7918 55.3777 26.3974 49.468 30.5262 44.8719C29.8748 43.2306 27.5928 36.4439 31.1789 27.3605C31.1789 27.3605 36.7192 25.609 49.2115 34.1458C54.5599 32.6989 60.0756 31.9628 65.6162 31.9566C71.1565 31.9566 76.8043 32.7235 82.0196 34.1458C94.5132 25.609 100.054 27.3605 100.054 27.3605C103.64 36.4439 101.356 43.2306 100.705 44.8719C104.942 49.468 107.441 55.3777 107.441 62.6009C107.441 87.9924 92.1238 93.573 77.457 95.2156C79.8478 97.2947 81.9108 101.234 81.9108 107.473C81.9108 116.337 81.8033 123.452 81.8033 125.64C81.8033 127.391 82.9987 129.472 86.2571 128.815C112.33 120.058 131.124 95.3244 131.124 66.1037C131.231 29.5484 101.791 0 65.6162 0Z" fill="#24292F"/>
</g>
<defs>
<clipPath id="clip0_268_6052">
<rect width="131.124" height="131.124" fill="white"/>
</clipPath>
</defs>
</svg>
