<svg width="132" height="131" viewBox="0 0 132 131" fill="none" xmlns="http://www.w3.org/2000/svg">
<g clip-path="url(#clip0_302_3312)">
<path d="M0.875977 43.9396C0.875977 28.3972 0.875977 20.6261 3.94865 14.7109C6.53796 9.72627 10.6022 5.66199 15.5869 3.07267C21.502 0 29.2732 0 44.8156 0H87.9364C103.479 0 111.25 0 117.165 3.07267C122.15 5.66199 126.214 9.72627 128.803 14.7109C131.876 20.6261 131.876 28.3972 131.876 43.9396V87.0604C131.876 102.603 131.876 110.374 128.803 116.289C126.214 121.274 122.15 125.338 117.165 127.927C111.25 131 103.479 131 87.9364 131H44.8156C29.2732 131 21.502 131 15.5869 127.927C10.6022 125.338 6.53796 121.274 3.94865 116.289C0.875977 110.374 0.875977 102.603 0.875977 87.0604V43.9396Z" fill="#12100E"/>
<path d="M32.1369 43.8117C32.2462 42.7313 31.8343 41.6636 31.0276 40.9365L22.8105 31.0377V29.559H48.3246L68.0456 72.8098L85.3837 29.559H109.706V31.0377L102.681 37.7738C102.075 38.2355 101.775 38.9943 101.9 39.7453V89.2394C101.775 89.9904 102.075 90.7492 102.681 91.2109L109.542 97.947V99.4257H75.0301V97.947L82.1379 91.0466C82.8364 90.3484 82.8364 90.143 82.8364 89.0751V49.0691L63.0743 99.2614H60.4037L37.3958 49.0691V82.7086C37.204 84.1229 37.6737 85.5468 38.6695 86.5696L47.9137 97.7827V99.2614H21.7012V97.7827L30.9454 86.5696C31.9339 85.5451 32.3763 84.1118 32.1369 82.7086V43.8117Z" fill="white"/>
</g>
<defs>
<clipPath id="clip0_302_3312">
<rect width="131" height="131" fill="white" transform="translate(0.875977)"/>
</clipPath>
</defs>
</svg>
