<svg width="132" height="132" viewBox="0 0 132 132" fill="none" xmlns="http://www.w3.org/2000/svg">
<path d="M65.5834 0.123901C38.2118 0.123901 30.2067 0.152146 28.6507 0.281263C23.0336 0.748306 19.5383 1.63296 15.7303 3.52938C12.7957 4.98699 10.4813 6.67662 8.19718 9.04512C4.0373 13.3645 1.51616 18.6785 0.603505 24.9952C0.159784 28.0617 0.0307019 28.6871 0.00448203 44.3507C-0.00560253 49.5719 0.00448203 56.4434 0.00448203 65.6601C0.00448203 93.0169 0.0347357 101.016 0.165835 102.57C0.61964 108.037 1.47683 111.477 3.29205 115.239C6.76114 122.442 13.3867 127.848 21.1921 129.866C23.8948 130.562 26.8798 130.945 30.712 131.127C32.3356 131.197 48.8843 131.248 65.4432 131.248C82.002 131.248 98.5609 131.228 100.144 131.147C104.581 130.938 107.158 130.592 110.007 129.856C113.877 128.863 117.484 127.037 120.576 124.506C123.668 121.974 126.169 118.798 127.907 115.199C129.687 111.527 130.589 107.956 130.998 102.774C131.087 101.645 131.124 83.6317 131.124 65.643C131.124 47.6513 131.084 29.6716 130.995 28.5419C130.581 23.2763 129.679 19.7356 127.841 15.9933C126.334 12.9297 124.66 10.6419 122.229 8.30269C117.893 4.15883 112.588 1.637 106.266 0.725105C103.204 0.282272 102.594 0.151137 86.9223 0.123901H65.5834Z" fill="url(#paint0_radial_268_6054)"/>
<path d="M65.5834 0.123901C38.2118 0.123901 30.2067 0.152146 28.6507 0.281263C23.0336 0.748306 19.5383 1.63296 15.7303 3.52938C12.7957 4.98699 10.4813 6.67662 8.19718 9.04512C4.0373 13.3645 1.51616 18.6785 0.603505 24.9952C0.159784 28.0617 0.0307019 28.6871 0.00448203 44.3507C-0.00560253 49.5719 0.00448203 56.4434 0.00448203 65.6601C0.00448203 93.0169 0.0347357 101.016 0.165835 102.57C0.61964 108.037 1.47683 111.477 3.29205 115.239C6.76114 122.442 13.3867 127.848 21.1921 129.866C23.8948 130.562 26.8798 130.945 30.712 131.127C32.3356 131.197 48.8843 131.248 65.4432 131.248C82.002 131.248 98.5609 131.228 100.144 131.147C104.581 130.938 107.158 130.592 110.007 129.856C113.877 128.863 117.484 127.037 120.576 124.506C123.668 121.974 126.169 118.798 127.907 115.199C129.687 111.527 130.589 107.956 130.998 102.774C131.087 101.645 131.124 83.6317 131.124 65.643C131.124 47.6513 131.084 29.6716 130.995 28.5419C130.581 23.2763 129.679 19.7356 127.841 15.9933C126.334 12.9297 124.66 10.6419 122.229 8.30269C117.893 4.15883 112.588 1.637 106.266 0.725105C103.204 0.282272 102.594 0.151137 86.9223 0.123901H65.5834Z" fill="url(#paint1_radial_268_6054)"/>
<path d="M65.5534 17.2723C52.4072 17.2723 50.7574 17.3298 45.5941 17.5649C40.4409 17.8009 36.9234 18.617 33.8456 19.8143C30.6619 21.051 27.9612 22.7054 25.2707 25.3977C22.5781 28.089 20.9242 30.7903 19.6838 33.9739C18.4838 37.0535 17.6669 40.573 17.435 45.7256C17.205 50.8903 17.1445 52.5416 17.1445 65.6914C17.1445 78.8412 17.203 80.4865 17.437 85.6512C17.674 90.8058 18.4898 94.3242 19.6858 97.4029C20.9232 100.587 22.5771 103.289 25.2687 105.98C27.9582 108.673 30.6588 110.332 33.8405 111.568C36.9204 112.766 40.4389 113.582 45.5911 113.818C50.7543 114.053 52.4032 114.11 65.5484 114.11C78.6956 114.11 80.3404 114.053 85.5037 113.818C90.6569 113.582 94.1785 112.766 97.2583 111.568C100.441 110.332 103.138 108.673 105.827 105.98C108.52 103.289 110.174 100.587 111.414 97.4039C112.604 94.3242 113.421 90.8048 113.663 85.6522C113.895 80.4875 113.955 78.8412 113.955 65.6914C113.955 52.5416 113.895 50.8913 113.663 45.7266C113.421 40.572 112.604 37.0535 111.414 33.9749C110.174 30.7903 108.52 28.089 105.827 25.3977C103.135 22.7044 100.442 21.05 97.2553 19.8143C94.1694 18.617 90.6499 17.8009 85.4967 17.5649C80.3334 17.3298 78.6896 17.2723 65.5393 17.2723H65.5534ZM61.211 25.9979C62.4998 25.9958 63.9379 25.9979 65.5534 25.9979C78.4778 25.9979 80.0097 26.0443 85.1134 26.2763C89.833 26.4921 92.3945 27.281 94.1008 27.9437C96.3597 28.8213 97.9703 29.8704 99.6635 31.565C101.358 33.2597 102.406 34.8737 103.286 37.1332C103.948 38.838 104.738 41.4002 104.953 46.121C105.185 51.2252 105.235 52.7585 105.235 65.6803C105.235 78.6022 105.185 80.1354 104.953 85.2396C104.737 89.9605 103.948 92.5227 103.286 94.2274C102.408 96.487 101.358 98.0959 99.6635 99.7895C97.9692 101.484 96.3608 102.533 94.1008 103.411C92.3965 104.077 89.833 104.863 85.1134 105.079C80.0107 105.311 78.4778 105.362 65.5534 105.362C52.6281 105.362 51.0962 105.311 45.9934 105.079C41.2739 104.861 38.7124 104.073 37.0051 103.41C34.7461 102.532 33.1326 101.483 31.4384 99.7885C29.7442 98.0939 28.6954 96.4839 27.816 94.2234C27.1535 92.5186 26.3638 89.9564 26.149 85.2356C25.9171 80.1314 25.8707 78.5981 25.8707 65.6682C25.8707 52.7383 25.9171 51.2131 26.149 46.1089C26.3648 41.3881 27.1535 38.8259 27.816 37.1191C28.6934 34.8596 29.7442 33.2456 31.4384 31.5509C33.1326 29.8563 34.7461 28.8072 37.0051 27.9276C38.7114 27.2618 41.2739 26.475 45.9934 26.2581C50.4589 26.0564 52.1894 25.9958 61.211 25.9858V25.9979ZM91.3921 34.0374C90.2432 34.0374 89.12 34.3783 88.1647 35.0168C87.2095 35.6553 86.4649 36.5629 86.0254 37.6247C85.5858 38.6865 85.4709 39.8549 85.6952 40.982C85.9194 42.1091 86.4729 43.1444 87.2854 43.9569C88.098 44.7694 89.1332 45.3227 90.2601 45.5466C91.387 45.7706 92.555 45.6552 93.6164 45.2152C94.6778 44.7751 95.5848 44.0301 96.2228 43.0743C96.8609 42.1185 97.2012 40.995 97.2008 39.8457C97.2008 36.638 94.599 34.0354 91.3921 34.0354V34.0374ZM65.5534 40.8262C51.8253 40.8262 40.695 51.9596 40.695 65.6914C40.695 79.4233 51.8253 90.5516 65.5534 90.5516C79.2816 90.5516 90.4089 79.4233 90.4089 65.6914C90.4089 51.9596 79.2805 40.8262 65.5524 40.8262H65.5534ZM65.5534 49.5517C74.4642 49.5517 81.6887 56.7773 81.6887 65.6914C81.6887 74.6046 74.4642 81.8311 65.5534 81.8311C56.6417 81.8311 49.4181 74.6046 49.4181 65.6914C49.4181 56.7773 56.6417 49.5517 65.5534 49.5517Z" fill="white"/>
<defs>
<radialGradient id="paint0_radial_268_6054" cx="0" cy="0" r="1" gradientUnits="userSpaceOnUse" gradientTransform="translate(34.83 141.347) rotate(-90) scale(129.953 120.867)">
<stop stop-color="#FFDD55"/>
<stop offset="0.1" stop-color="#FFDD55"/>
<stop offset="0.5" stop-color="#FF543E"/>
<stop offset="1" stop-color="#C837AB"/>
</radialGradient>
<radialGradient id="paint1_radial_268_6054" cx="0" cy="0" r="1" gradientUnits="userSpaceOnUse" gradientTransform="translate(-21.9639 9.56985) rotate(78.6806) scale(58.0897 239.448)">
<stop stop-color="#3771C8"/>
<stop offset="0.128" stop-color="#3771C8"/>
<stop offset="1" stop-color="#6600FF" stop-opacity="0"/>
</radialGradient>
</defs>
</svg>
